{"accessors":[{"bufferView":0,"byteOffset":0,"componentType":5126,"count":2210,"max":[0.499433666467667,0.5,0.499433666467667],"min":[-0.49943366646767,-0.5,-0.49943366646767],"normalized":false,"type":"VEC3"},{"bufferView":1,"byteOffset":0,"componentType":5126,"count":2210,"max":[1,0,1,1],"min":[-1,-0.00002157951531,-1,1],"normalized":false,"type":"VEC4"},{"bufferView":2,"byteOffset":0,"componentType":5126,"count":2210,"max":[0.998868048191071,1,0.998868048191071],"min":[-0.99886882305145,-1,-0.99886721372604],"normalized":false,"type":"VEC3"},{"bufferView":3,"byteOffset":0,"componentType":5126,"count":2210,"max":[1,1],"min":[0,0],"normalized":false,"type":"VEC2"},{"bufferView":4,"byteOffset":0,"componentType":5123,"count":12672,"max":[2209],"min":[0],"normalized":false,"type":"SCALAR"},{"bufferView":5,"byteOffset":0,"componentType":5126,"count":2145,"max":[1,0.25,1],"min":[-1,-0.25,-1],"normalized":false,"type":"VEC3"},{"bufferView":6,"byteOffset":0,"componentType":5126,"count":2145,"max":[1,0,1,1],"min":[-1,-0.00002157951531,-1,1],"normalized":false,"type":"VEC4"},{"bufferView":7,"byteOffset":0,"componentType":5126,"count":2145,"max":[1,1,1],"min":[-1,-1,-1],"normalized":false,"type":"VEC3"},{"bufferView":8,"byteOffset":0,"componentType":5126,"count":2145,"max":[1,1],"min":[0,0],"normalized":false,"type":"VEC2"},{"bufferView":9,"byteOffset":0,"componentType":5123,"count":12288,"max":[2144],"min":[0],"normalized":false,"type":"SCALAR"},{"bufferView":10,"byteOffset":0,"componentType":5126,"count":2145,"max":[1,0.25,1],"min":[-1,-0.25,-1],"normalized":false,"type":"VEC3"},{"bufferView":11,"byteOffset":0,"componentType":5126,"count":2145,"max":[1,0,1,1],"min":[-1,-0.00002157951531,-1,1],"normalized":false,"type":"VEC4"},{"bufferView":12,"byteOffset":0,"componentType":5126,"count":2145,"max":[1,1,1],"min":[-1,-1,-1],"normalized":false,"type":"VEC3"},{"bufferView":13,"byteOffset":0,"componentType":5126,"count":2145,"max":[1,1],"min":[0,0],"normalized":false,"type":"VEC2"},{"bufferView":14,"byteOffset":0,"componentType":5123,"count":12288,"max":[2144],"min":[0],"normalized":false,"type":"SCALAR"}],"asset":{"generator":"Godot Engine v4.3.stable.mono.official@77dcf97d82cbfe4e4615475fa52ca03da645dbd8","version":"2.0"},"bufferViews":[{"buffer":0,"byteLength":26520,"byteOffset":0,"byteStride":12,"target":34962},{"buffer":0,"byteLength":35360,"byteOffset":26520,"byteStride":16,"target":34962},{"buffer":0,"byteLength":26520,"byteOffset":61880,"byteStride":12,"target":34962},{"buffer":0,"byteLength":17680,"byteOffset":88400,"byteStride":8,"target":34962},{"buffer":0,"byteLength":25344,"byteOffset":106080,"target":34963},{"buffer":0,"byteLength":25740,"byteOffset":131424,"byteStride":12,"target":34962},{"buffer":0,"byteLength":34320,"byteOffset":157164,"byteStride":16,"target":34962},{"buffer":0,"byteLength":25740,"byteOffset":191484,"byteStride":12,"target":34962},{"buffer":0,"byteLength":17160,"byteOffset":217224,"byteStride":8,"target":34962},{"buffer":0,"byteLength":24576,"byteOffset":234384,"target":34963},{"buffer":0,"byteLength":25740,"byteOffset":258960,"byteStride":12,"target":34962},{"buffer":0,"byteLength":34320,"byteOffset":284700,"byteStride":16,"target":34962},{"buffer":0,"byteLength":25740,"byteOffset":319020,"byteStride":12,"target":34962},{"buffer":0,"byteLength":17160,"byteOffset":344760,"byteStride":8,"target":34962},{"buffer":0,"byteLength":24576,"byteOffset":361920,"target":34963}],"buffers":[{"byteLength":386496,"uri":"Cube PlatJumper Player 2.00.bin"}],"extensionsUsed":["GODOT_single_root"],"materials":[{"extensions":{},"pbrMetallicRoughness":{"baseColorFactor":[0.0252283122390509,0.0501116141676903,0.4573914706707,1],"metallicFactor":0,"roughnessFactor":1}},{"extensions":{},"pbrMetallicRoughness":{"baseColorFactor":[0.00651208916679025,0.665387034416199,0.603827297687531,1],"metallicFactor":0,"roughnessFactor":0.75}},{"extensions":{},"pbrMetallicRoughness":{"baseColorFactor":[0.665387034416199,0.701101899147034,0.0409150421619415,1],"metallicFactor":0,"roughnessFactor":0.529999971389771}}],"meshes":[{"extras":{"targetNames":[]},"primitives":[{"attributes":{"NORMAL":2,"POSITION":0,"TANGENT":1,"TEXCOORD_0":3},"indices":4,"material":0,"mode":4}]},{"extras":{"targetNames":[]},"primitives":[{"attributes":{"NORMAL":7,"POSITION":5,"TANGENT":6,"TEXCOORD_0":8},"indices":9,"material":1,"mode":4}]},{"extras":{"targetNames":[]},"primitives":[{"attributes":{"NORMAL":12,"POSITION":10,"TANGENT":11,"TEXCOORD_0":13},"indices":14,"material":2,"mode":4}]}],"nodes":[{"children":[1,3,5],"name":"Cube PlatJumper Player 2_0","scale":[0.0799999982118607,0.0799999982118607,0.0799999982118607]},{"children":[2],"name":"Ball"},{"mesh":0,"name":"MeshInstance3D"},{"children":[4],"name":"Bottom","scale":[0.400000005960464,0.400000005960464,0.400000005960464],"translation":[0,-0.40000000596046,0]},{"mesh":1,"name":"MeshInstance3D2"},{"children":[6],"name":"Ring","scale":[0.300000011920929,0.200000002980232,0.300000011920929],"translation":[0,0.5,0]},{"mesh":2,"name":"MeshInstance3D3"}],"scene":0,"scenes":[{"nodes":[0]}]}